<svg width="43" height="43" viewBox="0 0 43 43" fill="none" xmlns="http://www.w3.org/2000/svg">
<path fill-rule="evenodd" clip-rule="evenodd" d="M21.5 37.625C23.6176 37.625 25.7144 37.2079 27.6708 36.3976C29.6271 35.5872 31.4048 34.3994 32.9021 32.9021C34.3994 31.4048 35.5872 29.6271 36.3976 27.6708C37.2079 25.7144 37.625 23.6176 37.625 21.5C37.625 19.3824 37.2079 17.2856 36.3976 15.3292C35.5872 13.3729 34.3994 11.5952 32.9021 10.0979C31.4048 8.60056 29.6271 7.4128 27.6708 6.60244C25.7144 5.79209 23.6176 5.375 21.5 5.375C17.2234 5.375 13.1219 7.07388 10.0979 10.0979C7.07388 13.1219 5.375 17.2234 5.375 21.5C5.375 25.7766 7.07388 29.8781 10.0979 32.9021C13.1219 35.9261 17.2234 37.625 21.5 37.625ZM21.0843 28.0217L30.0427 17.2717L27.2907 14.9783L19.5865 24.2215L15.6 20.2333L13.0666 22.7667L18.4416 28.1417L19.8284 29.5285L21.0843 28.0217Z" fill="black"/>
</svg>
