<svg width="190" height="48" viewBox="0 0 190 48" fill="none" xmlns="http://www.w3.org/2000/svg">
<g clip-path="url(#clip0_2053_517)">
<path d="M60.8884 19.6601V24.7721H69.1324V29.5241H60.8884V35.0681H70.2124V40.0001H54.7324V14.7281H70.2124V19.6601H60.8884ZM86.449 19.6961C88.801 19.6961 90.673 20.4641 92.065 22.0001C93.481 23.5121 94.189 25.6001 94.189 28.2641V40.0001H88.069V29.0921C88.069 27.7481 87.721 26.7041 87.025 25.9601C86.329 25.2161 85.393 24.8441 84.217 24.8441C83.041 24.8441 82.105 25.2161 81.409 25.9601C80.713 26.7041 80.365 27.7481 80.365 29.0921V40.0001H74.209V19.9121H80.365V22.5761C80.989 21.6881 81.829 20.9921 82.885 20.4881C83.941 19.9601 85.129 19.6961 86.449 19.6961ZM107.502 34.2401L111.858 19.9121H118.41L111.282 40.0001H103.686L96.5588 19.9121H103.146L107.502 34.2401ZM130.146 40.2881C128.178 40.2881 126.402 39.8681 124.818 39.0281C123.258 38.1881 122.022 36.9881 121.11 35.4281C120.222 33.8681 119.778 32.0441 119.778 29.9561C119.778 27.8921 120.234 26.0801 121.146 24.5201C122.058 22.9361 123.306 21.7241 124.89 20.8841C126.474 20.0441 128.25 19.6241 130.218 19.6241C132.186 19.6241 133.962 20.0441 135.546 20.8841C137.13 21.7241 138.378 22.9361 139.29 24.5201C140.202 26.0801 140.658 27.8921 140.658 29.9561C140.658 32.0201 140.19 33.8441 139.254 35.4281C138.342 36.9881 137.082 38.1881 135.474 39.0281C133.89 39.8681 132.114 40.2881 130.146 40.2881ZM130.146 34.9601C131.322 34.9601 132.318 34.5281 133.134 33.6641C133.974 32.8001 134.394 31.5641 134.394 29.9561C134.394 28.3481 133.986 27.1121 133.17 26.2481C132.378 25.3841 131.394 24.9521 130.218 24.9521C129.018 24.9521 128.022 25.3841 127.23 26.2481C126.438 27.0881 126.042 28.3241 126.042 29.9561C126.042 31.5641 126.426 32.8001 127.194 33.6641C127.986 34.5281 128.97 34.9601 130.146 34.9601ZM147.019 17.8241C145.939 17.8241 145.051 17.5121 144.355 16.8881C143.683 16.2401 143.347 15.4481 143.347 14.5121C143.347 13.5521 143.683 12.7601 144.355 12.1361C145.051 11.4881 145.939 11.1641 147.019 11.1641C148.075 11.1641 148.939 11.4881 149.611 12.1361C150.307 12.7601 150.655 13.5521 150.655 14.5121C150.655 15.4481 150.307 16.2401 149.611 16.8881C148.939 17.5121 148.075 17.8241 147.019 17.8241ZM150.079 19.9121V40.0001H143.923V19.9121H150.079ZM166.421 40.0001L162.569 34.4201L159.329 40.0001H152.669L159.293 29.7401L152.489 19.9121H159.401L163.253 25.4561L166.493 19.9121H173.153L166.421 30.0281L173.333 40.0001H166.421Z" fill="black"/>
<mask id="mask0_2053_517" style="mask-type:luminance" maskUnits="userSpaceOnUse" x="0" y="6" width="43" height="42">
<path d="M42.47 6H0.5V47.97H42.47V6Z" fill="white"/>
</mask>
<g mask="url(#mask0_2053_517)">
<path d="M38.44 6H4.52C2.3 6 0.5 7.8 0.5 10.02V43.94C0.5 46.16 2.3 47.96 4.52 47.96H38.44C40.66 47.96 42.46 46.16 42.46 43.94V10.02C42.46 7.8 40.66 6 38.44 6ZM20.8 41.22H8.68C8.37 41.22 8.17 40.89 8.32 40.62L11.89 34.17C11.96 34.04 12.1 33.96 12.25 33.96H24.37C24.68 33.96 24.88 34.29 24.73 34.56L21.16 41.01C21.09 41.14 20.95 41.22 20.8 41.22ZM26.32 30.62H10.12C9.81 30.62 9.61 30.28 9.77 30.01L13.48 23.56C13.55 23.43 13.69 23.36 13.83 23.36H30.02C30.33 23.36 30.53 23.7 30.37 23.97L26.66 30.42C26.59 30.55 26.45 30.62 26.31 30.62H26.32ZM32.21 20.01H11.18C10.86 20.01 10.67 19.66 10.83 19.39L14.77 12.94C14.84 12.82 14.98 12.74 15.12 12.74H36.15C36.47 12.74 36.66 13.09 36.5 13.36L32.56 19.81C32.49 19.93 32.35 20.01 32.21 20.01Z" fill="url(#paint0_linear_2053_517)"/>
</g>
</g>
<defs>
<linearGradient id="paint0_linear_2053_517" x1="-7.33" y1="-2.32" x2="39.34" y2="45.14" gradientUnits="userSpaceOnUse">
<stop offset="0.26" stop-color="#3550E5"/>
<stop offset="0.7" stop-color="#2573EE"/>
</linearGradient>
<clipPath id="clip0_2053_517">
<rect width="189" height="48" fill="white" transform="translate(0.5)"/>
</clipPath>
</defs>
</svg>
